<svg id="visual" viewBox="0 0 900 200" width="900" height="200" xmlns="http://www.w3.org/2000/svg" xmlns:xlink="http://www.w3.org/1999/xlink" version="1.1"><rect x="0" y="0" width="900" height="200" fill="#81b4de"></rect><path d="M0 87L21.5 87.5C43 88 86 89 128.8 89.2C171.7 89.3 214.3 88.7 257.2 91.8C300 95 343 102 385.8 105.7C428.7 109.3 471.3 109.7 514.2 110.3C557 111 600 112 642.8 111C685.7 110 728.3 107 771.2 102.2C814 97.3 857 90.7 878.5 87.3L900 84L900 201L878.5 201C857 201 814 201 771.2 201C728.3 201 685.7 201 642.8 201C600 201 557 201 514.2 201C471.3 201 428.7 201 385.8 201C343 201 300 201 257.2 201C214.3 201 171.7 201 128.8 201C86 201 43 201 21.5 201L0 201Z" fill="#81b4de"></path><path d="M0 126L21.5 122.5C43 119 86 112 128.8 114.7C171.7 117.3 214.3 129.7 257.2 129.7C300 129.7 343 117.3 385.8 116.3C428.7 115.3 471.3 125.7 514.2 130C557 134.3 600 132.7 642.8 129.3C685.7 126 728.3 121 771.2 120C814 119 857 122 878.5 123.5L900 125L900 201L878.5 201C857 201 814 201 771.2 201C728.3 201 685.7 201 642.8 201C600 201 557 201 514.2 201C471.3 201 428.7 201 385.8 201C343 201 300 201 257.2 201C214.3 201 171.7 201 128.8 201C86 201 43 201 21.5 201L0 201Z" fill="#658bb0"></path><path d="M0 157L21.5 154.8C43 152.7 86 148.3 128.8 145.2C171.7 142 214.3 140 257.2 142C300 144 343 150 385.8 151.7C428.7 153.3 471.3 150.7 514.2 146.3C557 142 600 136 642.8 137.2C685.7 138.3 728.3 146.7 771.2 150.7C814 154.7 857 154.3 878.5 154.2L900 154L900 201L878.5 201C857 201 814 201 771.2 201C728.3 201 685.7 201 642.8 201C600 201 557 201 514.2 201C471.3 201 428.7 201 385.8 201C343 201 300 201 257.2 201C214.3 201 171.7 201 128.8 201C86 201 43 201 21.5 201L0 201Z" fill="#4a6483"></path><path d="M0 166L21.5 166.5C43 167 86 168 128.8 165.3C171.7 162.7 214.3 156.3 257.2 152.3C300 148.3 343 146.7 385.8 149.5C428.7 152.3 471.3 159.7 514.2 161C557 162.3 600 157.7 642.8 158.5C685.7 159.3 728.3 165.7 771.2 167C814 168.3 857 164.7 878.5 162.8L900 161L900 201L878.5 201C857 201 814 201 771.2 201C728.3 201 685.7 201 642.8 201C600 201 557 201 514.2 201C471.3 201 428.7 201 385.8 201C343 201 300 201 257.2 201C214.3 201 171.7 201 128.8 201C86 201 43 201 21.5 201L0 201Z" fill="#304059"></path><path d="M0 181L21.5 181.5C43 182 86 183 128.8 180.7C171.7 178.3 214.3 172.7 257.2 171.2C300 169.7 343 172.3 385.8 174.8C428.7 177.3 471.3 179.7 514.2 180.7C557 181.7 600 181.3 642.8 178.8C685.7 176.3 728.3 171.7 771.2 169.2C814 166.7 857 166.3 878.5 166.2L900 166L900 201L878.5 201C857 201 814 201 771.2 201C728.3 201 685.7 201 642.8 201C600 201 557 201 514.2 201C471.3 201 428.7 201 385.8 201C343 201 300 201 257.2 201C214.3 201 171.7 201 128.8 201C86 201 43 201 21.5 201L0 201Z" fill="#162032"></path></svg>