<svg id="visual" viewBox="0 0 900 300" width="900" height="300" xmlns="http://www.w3.org/2000/svg" xmlns:xlink="http://www.w3.org/1999/xlink" version="1.1"><rect x="0" y="0" width="900" height="300" fill="#284570"></rect><path d="M0 191L21.5 192.5C43 194 86 197 128.8 201C171.7 205 214.3 210 257.2 208.2C300 206.3 343 197.7 385.8 194.7C428.7 191.7 471.3 194.3 514.2 193.7C557 193 600 189 642.8 192.3C685.7 195.7 728.3 206.3 771.2 204.7C814 203 857 189 878.5 182L900 175L900 301L878.5 301C857 301 814 301 771.2 301C728.3 301 685.7 301 642.8 301C600 301 557 301 514.2 301C471.3 301 428.7 301 385.8 301C343 301 300 301 257.2 301C214.3 301 171.7 301 128.8 301C86 301 43 301 21.5 301L0 301Z" fill="#284570"></path><path d="M0 221L21.5 222C43 223 86 225 128.8 221.5C171.7 218 214.3 209 257.2 207.5C300 206 343 212 385.8 218.5C428.7 225 471.3 232 514.2 232.8C557 233.7 600 228.3 642.8 221.5C685.7 214.7 728.3 206.3 771.2 207.2C814 208 857 218 878.5 223L900 228L900 301L878.5 301C857 301 814 301 771.2 301C728.3 301 685.7 301 642.8 301C600 301 557 301 514.2 301C471.3 301 428.7 301 385.8 301C343 301 300 301 257.2 301C214.3 301 171.7 301 128.8 301C86 301 43 301 21.5 301L0 301Z" fill="#3d5f8b"></path><path d="M0 239L21.5 236.3C43 233.7 86 228.3 128.8 224.8C171.7 221.3 214.3 219.7 257.2 220.8C300 222 343 226 385.8 230.8C428.7 235.7 471.3 241.3 514.2 244.5C557 247.7 600 248.3 642.8 248.7C685.7 249 728.3 249 771.2 245.5C814 242 857 235 878.5 231.5L900 228L900 301L878.5 301C857 301 814 301 771.2 301C728.3 301 685.7 301 642.8 301C600 301 557 301 514.2 301C471.3 301 428.7 301 385.8 301C343 301 300 301 257.2 301C214.3 301 171.7 301 128.8 301C86 301 43 301 21.5 301L0 301Z" fill="#537aa6"></path><path d="M0 257L21.5 259C43 261 86 265 128.8 263.2C171.7 261.3 214.3 253.7 257.2 252.5C300 251.3 343 256.7 385.8 258.3C428.7 260 471.3 258 514.2 258.2C557 258.3 600 260.7 642.8 262.7C685.7 264.7 728.3 266.3 771.2 264.3C814 262.3 857 256.7 878.5 253.8L900 251L900 301L878.5 301C857 301 814 301 771.2 301C728.3 301 685.7 301 642.8 301C600 301 557 301 514.2 301C471.3 301 428.7 301 385.8 301C343 301 300 301 257.2 301C214.3 301 171.7 301 128.8 301C86 301 43 301 21.5 301L0 301Z" fill="#6997c2"></path><path d="M0 265L21.5 265.7C43 266.3 86 267.7 128.8 269.2C171.7 270.7 214.3 272.3 257.2 271.5C300 270.7 343 267.3 385.8 268C428.7 268.7 471.3 273.3 514.2 275.8C557 278.3 600 278.7 642.8 276.8C685.7 275 728.3 271 771.2 270.3C814 269.7 857 272.3 878.5 273.7L900 275L900 301L878.5 301C857 301 814 301 771.2 301C728.3 301 685.7 301 642.8 301C600 301 557 301 514.2 301C471.3 301 428.7 301 385.8 301C343 301 300 301 257.2 301C214.3 301 171.7 301 128.8 301C86 301 43 301 21.5 301L0 301Z" fill="#81b4de"></path></svg>