<svg id="visual" viewBox="0 0 960 300" width="960" height="300" xmlns="http://www.w3.org/2000/svg" xmlns:xlink="http://www.w3.org/1999/xlink" version="1.1"><rect x="0" y="0" width="960" height="300" fill="#4FACF7"></rect><path d="M0 180L17.8 169.3C35.7 158.7 71.3 137.3 106.8 127.3C142.3 117.3 177.7 118.7 213.2 120.5C248.7 122.3 284.3 124.7 320 132.5C355.7 140.3 391.3 153.7 426.8 160.7C462.3 167.7 497.7 168.3 533.2 165C568.7 161.7 604.3 154.3 640 150.2C675.7 146 711.3 145 746.8 142.3C782.3 139.7 817.7 135.3 853.2 139.5C888.7 143.7 924.3 156.3 942.2 162.7L960 169L960 301L942.2 301C924.3 301 888.7 301 853.2 301C817.7 301 782.3 301 746.8 301C711.3 301 675.7 301 640 301C604.3 301 568.7 301 533.2 301C497.7 301 462.3 301 426.8 301C391.3 301 355.7 301 320 301C284.3 301 248.7 301 213.2 301C177.7 301 142.3 301 106.8 301C71.3 301 35.7 301 17.8 301L0 301Z" fill="#4facf7"></path><path d="M0 189L17.8 192.8C35.7 196.7 71.3 204.3 106.8 203C142.3 201.7 177.7 191.3 213.2 189.7C248.7 188 284.3 195 320 192.8C355.7 190.7 391.3 179.3 426.8 179C462.3 178.7 497.7 189.3 533.2 196.8C568.7 204.3 604.3 208.7 640 209.3C675.7 210 711.3 207 746.8 203.8C782.3 200.7 817.7 197.3 853.2 192.8C888.7 188.3 924.3 182.7 942.2 179.8L960 177L960 301L942.2 301C924.3 301 888.7 301 853.2 301C817.7 301 782.3 301 746.8 301C711.3 301 675.7 301 640 301C604.3 301 568.7 301 533.2 301C497.7 301 462.3 301 426.8 301C391.3 301 355.7 301 320 301C284.3 301 248.7 301 213.2 301C177.7 301 142.3 301 106.8 301C71.3 301 35.7 301 17.8 301L0 301Z" fill="#4587c8"></path><path d="M0 211L17.8 210.2C35.7 209.3 71.3 207.7 106.8 209.5C142.3 211.3 177.7 216.7 213.2 219.5C248.7 222.3 284.3 222.7 320 219C355.7 215.3 391.3 207.7 426.8 208.2C462.3 208.7 497.7 217.3 533.2 217.2C568.7 217 604.3 208 640 206.3C675.7 204.7 711.3 210.3 746.8 217.3C782.3 224.3 817.7 232.7 853.2 234.2C888.7 235.7 924.3 230.3 942.2 227.7L960 225L960 301L942.2 301C924.3 301 888.7 301 853.2 301C817.7 301 782.3 301 746.8 301C711.3 301 675.7 301 640 301C604.3 301 568.7 301 533.2 301C497.7 301 462.3 301 426.8 301C391.3 301 355.7 301 320 301C284.3 301 248.7 301 213.2 301C177.7 301 142.3 301 106.8 301C71.3 301 35.7 301 17.8 301L0 301Z" fill="#38659b"></path><path d="M0 241L17.8 244.7C35.7 248.3 71.3 255.7 106.8 256.7C142.3 257.7 177.7 252.3 213.2 248.2C248.7 244 284.3 241 320 240.2C355.7 239.3 391.3 240.7 426.8 244.7C462.3 248.7 497.7 255.3 533.2 255.2C568.7 255 604.3 248 640 244C675.7 240 711.3 239 746.8 243C782.3 247 817.7 256 853.2 255C888.7 254 924.3 243 942.2 237.5L960 232L960 301L942.2 301C924.3 301 888.7 301 853.2 301C817.7 301 782.3 301 746.8 301C711.3 301 675.7 301 640 301C604.3 301 568.7 301 533.2 301C497.7 301 462.3 301 426.8 301C391.3 301 355.7 301 320 301C284.3 301 248.7 301 213.2 301C177.7 301 142.3 301 106.8 301C71.3 301 35.7 301 17.8 301L0 301Z" fill="#284570"></path></svg>