<svg id="visual" viewBox="0 0 960 300" width="960" height="300" xmlns="http://www.w3.org/2000/svg" xmlns:xlink="http://www.w3.org/1999/xlink" version="1.1"><rect x="0" y="0" width="960" height="300" fill="#162032"></rect><path d="M0 115L17.8 117.7C35.7 120.3 71.3 125.7 106.8 134.2C142.3 142.7 177.7 154.3 213.2 155.7C248.7 157 284.3 148 320 148.3C355.7 148.7 391.3 158.3 426.8 163.7C462.3 169 497.7 170 533.2 168.3C568.7 166.7 604.3 162.3 640 153.8C675.7 145.3 711.3 132.7 746.8 128.7C782.3 124.7 817.7 129.3 853.2 131C888.7 132.7 924.3 131.3 942.2 130.7L960 130L960 301L942.2 301C924.3 301 888.7 301 853.2 301C817.7 301 782.3 301 746.8 301C711.3 301 675.7 301 640 301C604.3 301 568.7 301 533.2 301C497.7 301 462.3 301 426.8 301C391.3 301 355.7 301 320 301C284.3 301 248.7 301 213.2 301C177.7 301 142.3 301 106.8 301C71.3 301 35.7 301 17.8 301L0 301Z" fill="#93d3d7"></path><path d="M0 158L17.8 158.3C35.7 158.7 71.3 159.3 106.8 168.3C142.3 177.3 177.7 194.7 213.2 201C248.7 207.3 284.3 202.7 320 199.2C355.7 195.7 391.3 193.3 426.8 193.7C462.3 194 497.7 197 533.2 195.3C568.7 193.7 604.3 187.3 640 188C675.7 188.7 711.3 196.3 746.8 200C782.3 203.7 817.7 203.3 853.2 195.8C888.7 188.3 924.3 173.7 942.2 166.3L960 159L960 301L942.2 301C924.3 301 888.7 301 853.2 301C817.7 301 782.3 301 746.8 301C711.3 301 675.7 301 640 301C604.3 301 568.7 301 533.2 301C497.7 301 462.3 301 426.8 301C391.3 301 355.7 301 320 301C284.3 301 248.7 301 213.2 301C177.7 301 142.3 301 106.8 301C71.3 301 35.7 301 17.8 301L0 301Z" fill="#6dc9e1"></path><path d="M0 197L17.8 197C35.7 197 71.3 197 106.8 202.2C142.3 207.3 177.7 217.7 213.2 223.3C248.7 229 284.3 230 320 231C355.7 232 391.3 233 426.8 231.8C462.3 230.7 497.7 227.3 533.2 226.7C568.7 226 604.3 228 640 226.5C675.7 225 711.3 220 746.8 219.8C782.3 219.7 817.7 224.3 853.2 221.7C888.7 219 924.3 209 942.2 204L960 199L960 301L942.2 301C924.3 301 888.7 301 853.2 301C817.7 301 782.3 301 746.8 301C711.3 301 675.7 301 640 301C604.3 301 568.7 301 533.2 301C497.7 301 462.3 301 426.8 301C391.3 301 355.7 301 320 301C284.3 301 248.7 301 213.2 301C177.7 301 142.3 301 106.8 301C71.3 301 35.7 301 17.8 301L0 301Z" fill="#4fbced"></path><path d="M0 254L17.8 254.5C35.7 255 71.3 256 106.8 254C142.3 252 177.7 247 213.2 244.3C248.7 241.7 284.3 241.3 320 244C355.7 246.7 391.3 252.3 426.8 255C462.3 257.7 497.7 257.3 533.2 255.5C568.7 253.7 604.3 250.3 640 252.2C675.7 254 711.3 261 746.8 260.3C782.3 259.7 817.7 251.3 853.2 247.8C888.7 244.3 924.3 245.7 942.2 246.3L960 247L960 301L942.2 301C924.3 301 888.7 301 853.2 301C817.7 301 782.3 301 746.8 301C711.3 301 675.7 301 640 301C604.3 301 568.7 301 533.2 301C497.7 301 462.3 301 426.8 301C391.3 301 355.7 301 320 301C284.3 301 248.7 301 213.2 301C177.7 301 142.3 301 106.8 301C71.3 301 35.7 301 17.8 301L0 301Z" fill="#4facf7"></path></svg>